# File produced by Open Asset Import Library (http://www.assimp.sf.net)
# (assimp v3.1.187496374)

mtllib Board.obj.mtl

# 20 vertex positions
v  50.0018 0 50.0018
v  50 0 -50
v  -50 0 50
v  -50.0018 0 -50.0018
v  50.0018 -3.6163 50.0018
v  -50 -3.6163 50
v  -50.0018 -3.6163 -50.0018
v  50 -3.6163 -50
v  53.3795 -3.6163 53.3795
v  -53.3778 -3.6163 53.3778
v  -53.3795 -3.6163 -53.3795
v  53.3778 -3.6163 -53.3778
v  51.9056 0 -51.9056
v  51.9073 0 51.9073
v  -51.9073 0 -51.9073
v  -51.9056 0 51.9056
v  53.3778 -1.57619 -53.3778
v  53.3795 -1.57619 53.3795
v  -53.3778 -1.57619 53.3778
v  -53.3795 -1.57619 -53.3795

# 48 UV coordinates
vt 0.968362 0.0316385 0
vt 0.968345 0.968345 0
vt 0.0316553 0.0316553 0
vt 0.0316384 0.968362 0
vt 0.968362 0.0316384 0
vt 0.0316553 0.0316553 0
vt 0.0316384 0.968361 0
vt 0.968345 0.968345 0
vt 1 0 0
vt 1.57356e-05 1.57058e-05 0
vt 2.98023e-08 1 0
vt 0.999984 0.999984 0
vt 1.02915 1.97667 0
vt 1.00663 1.94968 0
vt -0.174926 1.94971 0
vt -0.19744 1.97669 0
vt 1.02917 0.506394 0
vt 1.00666 0.533381 0
vt -0.19742 0.506418 0
vt -0.174905 0.533406 0
vt 1.03206 0.502281 0
vt -0.0279205 0.502281 0
vt -0.0279207 0.482216 0
vt 1.03206 0.482216 0
vt 1.01745 0.517784 0
vt -0.0133033 0.517784 0
vt 1.02584 0.502281 0
vt -0.0341425 0.502281 0
vt -0.0341426 0.482216 0
vt 1.02584 0.482216 0
vt 1.01122 0.517784 0
vt -0.0195248 0.517784 0
vt -0.0279038 0.502281 0
vt 1.03208 0.502281 0
vt 1.03208 0.482216 0
vt -0.0279039 0.482216 0
vt -0.0132861 0.517784 0
vt 1.01746 0.517784 0
vt -0.0341592 0.502281 0
vt 1.02582 0.502281 0
vt 1.02582 0.482216 0
vt -0.0341592 0.482216 0
vt -0.0195419 0.517784 0
vt 1.01121 0.517784 0
vt 0.00505501 0.988983 0
vt 0.99909 0.988965 0
vt 0.999108 0.00690353 0
vt 0.00507289 0.0069212 0

# 14 vertex normals
vn 0 1 0
vn 0 -1 0
vn 0.37371 -0.90853 0.186851
vn -0.186858 -0.90853 0.373708
vn -0.37371 -0.90853 -0.186851
vn 0.186858 -0.908531 -0.373706
vn 0.147101 0.943048 -0.298366
vn 0.256427 0.931928 0.256427
vn -0.177589 0.967948 -0.177589
vn -0.298366 0.943048 0.147101
vn 0.784812 0.477716 -0.394788
vn 0.493291 0.401642 0.771588
vn -0.641874 0.496582 0.584298
vn -0.486695 0.548961 -0.679537

# Mesh '3DSMesh_0_0' with 8 faces
g 3DSMesh_0_0
usemtl Wood
l  1/1 2/2
l  1/1 2/2
l  3/3 4/4
l  4/4 3/3
l  1/1 3/3
l  3/3 1/1
l  2/2 4/4
l  2/2 4/4

# Mesh '3DSMesh_0_0' with 34 faces
g 3DSMesh_0_0
usemtl Wood
f  5/5/2 6/6/2 7/7/2
f  8/8/2 5/5/2 7/7/2
f  9/9/3 5/5/2 8/8/2
f  10/10/4 6/6/2 5/5/2
f  9/9/3 10/10/4 5/5/2
f  11/11/5 7/7/2 6/6/2
f  10/10/4 11/11/5 6/6/2
f  12/12/6 8/8/2 7/7/2
f  11/11/5 12/12/6 7/7/2
f  12/12/6 9/9/3 8/8/2
f  13/13/7 2/14/1 1/15/1
f  14/16/8 13/13/7 1/15/1
f  13/13/7 15/17/9 2/14/1
f  15/17/9 4/18/1 2/14/1
f  15/17/9 16/19/10 4/18/1
f  16/19/10 3/20/1 4/18/1
f  16/19/10 14/16/8 3/20/1
f  14/16/8 1/15/1 3/20/1
f  17/21/11 18/22/12 9/23/3
f  12/24/6 17/21/11 9/23/3
f  17/21/11 13/25/7 14/26/8
f  18/22/12 17/21/11 14/26/8
f  18/27/12 19/28/13 10/29/4
f  9/30/3 18/27/12 10/29/4
f  19/28/13 18/27/12 14/31/8
f  16/32/10 19/28/13 14/31/8
f  19/33/13 20/34/14 11/35/5
f  10/36/4 19/33/13 11/35/5
f  20/34/14 19/33/13 16/37/10
f  15/38/9 20/34/14 16/37/10
f  20/39/14 17/40/11 12/41/6
f  11/42/5 20/39/14 12/41/6
f  20/39/14 15/43/9 13/44/7
f  17/40/11 20/39/14 13/44/7

# Mesh '3DSMesh_1_0' with 2 faces
g 3DSMesh_1_0
usemtl Glass
f  1/45/1 2/46/1 4/47/1
f  3/48/1 1/45/1 4/47/1

